# xmcd
#
# Track frame offsets:
#	150
#	18152
#	46926
#	90167
#	132683
#	169576
#	196463
#	224880
#	254281
#	275967
#
# Disc length: 4191 seconds
#
# Revision: 0
# Processed by: cddbd v1.5.2PL0 Copyright (c) Steve Scherf et al.
# Submitted via: audiograbber 1.83.01
#
DISCID=94105d0a
DTITLE=Grateful Dead - 93-06-09 The Palace, Auburn Hills MI
DYEAR=1900
DGENRE=
TTITLE0=Help On The Way
TTITLE1=Slipknot!
TTITLE2=Franklin's Tower
TTITLE3=Little Red Rooster
TTITLE4=Loose Lucy
TTITLE5=Easy Answers
TTITLE6=Bertha
TTITLE7=China Cat Sunflower
TTITLE8=I Know You Rider
TTITLE9=Men Smart, Women Are Smarter
EXTD=
EXTT0=
EXTT1=
EXTT2=
EXTT3=
EXTT4=
EXTT5=
EXTT6=
EXTT7=
EXTT8=
EXTT9=
PLAYORDER=
